<svg width="48" height="48" viewBox="0 0 48 48" fill="none" xmlns="http://www.w3.org/2000/svg">
<path d="M36.1501 3.1084L44.4961 11.8084V44.8924H13.3186V45.0004H44.6026V11.9179L36.1501 3.1084Z" fill="#777777" fill-opacity="0.5"/>
<path d="M36.0464 3H13.2119V44.892H44.4959V11.8095L36.0464 3Z" fill="#F4F4F4"/>
<path d="M12.9825 5.25H3.39746V15.4905H33.5475V5.25H12.9825Z" fill="#777777"/>
<path d="M33.708 15.3164H3.59253V5.06836H33.708V15.3164Z" fill="#DD2025"/>
<path d="M13.5779 6.80103H11.6174V14.001H13.1594V11.5725L13.4999 11.592C13.8308 11.5863 14.1585 11.5271 14.4704 11.4165C14.7439 11.3225 14.9954 11.174 15.2099 10.98C15.4282 10.7953 15.6003 10.5621 15.7124 10.299C15.8629 9.86178 15.9166 9.39708 15.8699 8.93703C15.8606 8.60839 15.8029 8.28292 15.6989 7.97103C15.6042 7.74589 15.4637 7.54293 15.2863 7.37507C15.1089 7.20721 14.8985 7.07813 14.6684 6.99603C14.4695 6.92403 14.2641 6.87178 14.0549 6.84003C13.8966 6.8156 13.7367 6.80257 13.5764 6.80103M13.2929 10.242H13.1594V8.02203H13.4489C13.5767 8.01282 13.7049 8.03243 13.8241 8.07943C13.9433 8.12642 14.0503 8.19959 14.1374 8.29353C14.3179 8.53505 14.4143 8.82904 14.4119 9.13053C14.4119 9.49953 14.4119 9.83403 14.0789 10.0695C13.839 10.2015 13.566 10.2624 13.2929 10.242ZM18.7994 6.78153C18.6329 6.78153 18.4709 6.79353 18.3569 6.79803L17.9999 6.80703H16.8299V14.007H18.2069C18.7332 14.0215 19.2571 13.9323 19.7489 13.7445C20.1448 13.5875 20.4953 13.3344 20.7689 13.008C21.035 12.6787 21.2259 12.2953 21.3284 11.8845C21.4463 11.4193 21.5037 10.9409 21.4994 10.461C21.5285 9.89427 21.4847 9.32612 21.3689 8.77053C21.2591 8.36158 21.0534 7.98467 20.7689 7.67103C20.5457 7.41778 20.2725 7.21349 19.9664 7.07103C19.7036 6.94941 19.4271 6.85977 19.1429 6.80403C19.0299 6.78536 18.9155 6.77683 18.8009 6.77853M18.5279 12.684H18.3779V8.08803H18.3974C18.7067 8.05245 19.0196 8.10825 19.2974 8.24853C19.5009 8.41102 19.6667 8.61573 19.7834 8.84853C19.9094 9.09354 19.982 9.36244 19.9964 9.63753C20.0099 9.96753 19.9964 10.2375 19.9964 10.461C20.0025 10.7185 19.986 10.976 19.9469 11.2305C19.9007 11.4919 19.8152 11.7447 19.6934 11.9805C19.5556 12.1998 19.3693 12.3845 19.1489 12.5205C18.9639 12.6402 18.7447 12.6961 18.5249 12.6795M26.1449 6.80703H22.4999V14.007H24.0419V11.151H25.9919V9.81303H24.0419V8.14503H26.1419V6.80703" fill="#464648"/>
<path d="M32.6715 30.3823C32.6715 30.3823 37.4535 29.5153 37.4535 31.1488C37.4535 32.7823 34.491 32.1178 32.6715 30.3823ZM29.136 30.5068C28.3763 30.6746 27.6358 30.9204 26.9265 31.2403L27.5265 29.8903C28.1265 28.5403 28.749 26.6998 28.749 26.6998C29.465 27.9048 30.298 29.0362 31.236 30.0778C30.5286 30.1832 29.8276 30.3275 29.136 30.5098V30.5068ZM27.243 20.7568C27.243 19.3333 27.7035 18.9448 28.062 18.9448C28.4205 18.9448 28.824 19.1173 28.8375 20.3533C28.7207 21.5961 28.4605 22.8213 28.062 24.0043C27.5162 23.011 27.2337 21.8946 27.2415 20.7613L27.243 20.7568ZM20.2695 36.5308C18.8025 35.6533 23.346 32.9518 24.1695 32.8648C24.165 32.8663 21.8055 37.4488 20.2695 36.5308ZM38.85 31.3423C38.835 31.1923 38.7 29.5318 35.745 29.6023C34.5133 29.5824 33.2822 29.6692 32.0655 29.8618C30.8869 28.6744 29.872 27.3351 29.0475 25.8793C29.5669 24.3784 29.8813 22.8143 29.982 21.2293C29.9385 19.4293 29.508 18.3973 28.128 18.4123C26.748 18.4273 26.547 19.6348 26.7285 21.4318C26.9063 22.6393 27.2417 23.8184 27.726 24.9388C27.726 24.9388 27.0885 26.9233 26.2455 28.8973C25.4025 30.8713 24.8265 31.9063 24.8265 31.9063C23.3606 32.3835 21.9806 33.0925 20.739 34.0063C19.503 35.1568 19.0005 36.0403 19.6515 36.9238C20.2125 37.6858 22.176 37.8583 23.931 35.5588C24.8635 34.3711 25.7154 33.1223 26.481 31.8208C26.481 31.8208 29.157 31.0873 29.9895 30.8863C30.822 30.6853 31.8285 30.5263 31.8285 30.5263C31.8285 30.5263 34.272 32.9848 36.6285 32.8978C38.985 32.8108 38.871 31.4893 38.856 31.3453" fill="#DD2025"/>
<path d="M35.9309 3.11523V11.9247H44.3804L35.9309 3.11523Z" fill="#777777"/>
<path d="M36.0464 3V11.8095H44.4959L36.0464 3Z" fill="#F4F4F4"/>
<path d="M13.4625 6.6858H11.502V13.8858H13.05V11.4588L13.392 11.4783C13.7228 11.4726 14.0506 11.4133 14.3625 11.3028C14.6359 11.2087 14.8874 11.0602 15.102 10.8663C15.3186 10.681 15.4891 10.4479 15.6 10.1853C15.7504 9.74805 15.8041 9.28335 15.7575 8.8233C15.7481 8.49466 15.6905 8.16918 15.5865 7.8573C15.4918 7.63216 15.3512 7.4292 15.1738 7.26134C14.9964 7.09348 14.786 6.96439 14.556 6.8823C14.3562 6.80959 14.1496 6.75684 13.9395 6.7248C13.7811 6.70036 13.6212 6.68733 13.461 6.6858M13.1775 10.1268H13.044V7.9068H13.335C13.4627 7.89758 13.5909 7.9172 13.7101 7.96419C13.8293 8.01119 13.9364 8.08436 14.0235 8.1783C14.2039 8.41982 14.3003 8.7138 14.298 9.0153C14.298 9.3843 14.298 9.7188 13.965 9.9543C13.7251 10.0862 13.452 10.1457 13.179 10.1253M18.684 6.6663C18.5175 6.6663 18.3555 6.6783 18.2415 6.6828L17.889 6.6918H16.719V13.8918H18.096C18.6222 13.9062 19.1461 13.817 19.638 13.6293C20.0338 13.4723 20.3844 13.2192 20.658 12.8928C20.924 12.5635 21.1149 12.1801 21.2175 11.7693C21.3353 11.3041 21.3928 10.8257 21.3885 10.3458C21.4175 9.77903 21.3737 9.21088 21.258 8.6553C21.1481 8.24634 20.9424 7.86944 20.658 7.5558C20.4347 7.30254 20.1615 7.09825 19.8555 6.9558C19.5926 6.83417 19.3161 6.74453 19.032 6.6888C18.9189 6.67013 18.8045 6.6616 18.69 6.6633M18.417 12.5688H18.267V7.9728H18.2865C18.5957 7.93722 18.9086 7.99302 19.1865 8.1333C19.3899 8.29579 19.5558 8.5005 19.6725 8.7333C19.7984 8.9783 19.871 9.24721 19.8855 9.5223C19.899 9.8523 19.8855 10.1223 19.8855 10.3458C19.8916 10.6033 19.875 10.8607 19.836 11.1153C19.7897 11.3766 19.7043 11.6295 19.5825 11.8653C19.4446 12.0845 19.2583 12.2693 19.038 12.4053C18.8529 12.525 18.6337 12.5808 18.414 12.5643M26.0295 6.6918H22.3845V13.8918H23.9265V11.0358H25.8765V9.6978H23.9265V8.0298H26.0265V6.6918" fill="white"/>
</svg>
